<svg width="15" height="15" viewBox="0 0 15 15" fill="none" xmlns="http://www.w3.org/2000/svg">
<path d="M7.45593 8.08591C7.4906 7.92172 7.58844 7.75777 7.7052 7.64855C7.76189 7.59551 7.8092 7.56846 7.83686 7.55742L7.8421 7.55541C8.15526 7.60605 8.45611 7.4021 8.52233 7.08841C8.59055 6.76519 8.38385 6.44786 8.06063 6.37964C7.57987 6.27816 7.15239 6.52762 6.88801 6.77493C6.60488 7.03977 6.37435 7.41781 6.28548 7.83884C6.21725 8.16206 6.42396 8.47938 6.74717 8.54761C7.07038 8.61584 7.38771 8.40913 7.45593 8.08591Z" fill="white"/>
<path d="M2.46554 5.22671C0.327606 6.9298 0.272375 9.81549 1.27426 11.7596C1.9476 13.0661 3.24247 14.2289 5.1848 14.2289C5.66675 14.2289 6.0143 14.2157 6.28796 14.2053C7.11717 14.1738 7.2677 14.1681 8.42201 14.634C9.95725 15.2536 11.5899 15.0697 12.9541 14.2094C14.1818 13.4352 14.8864 11.6375 14.767 10.1786C14.7036 9.40525 14.7729 9.08992 14.852 8.72992C14.9221 8.41081 15 8.05662 15 7.31722C15 5.7437 14.5338 4.74057 14.0677 3.92016C13.6016 3.09975 13.095 2.28688 11.6593 1.37235C10.48 0.621248 8.2463 0.261309 6.47969 1.24171C5.18481 1.96031 4.53737 2.61359 3.76044 3.92016C3.46633 4.41476 3.1842 4.65425 2.46554 5.22671ZM12.129 8.18138C12.129 10.3615 10.3616 12.129 8.18139 12.129C6.00118 12.129 4.23377 10.3615 4.23377 8.18138C4.23377 6.00117 6.00118 4.23376 8.18139 4.23376C10.3616 4.23376 12.129 6.00117 12.129 8.18138Z" fill="white"/>
</svg>
