<svg width="31" height="31" viewBox="0 0 31 31" fill="none" xmlns="http://www.w3.org/2000/svg">
<path d="M27.5569 10.1075C27.5569 11.1136 27.1573 12.0785 26.4459 12.7898C25.7345 13.5012 24.7697 13.9009 23.7636 13.9009C22.1249 13.9009 20.7289 12.8539 20.213 11.4125C19.5454 12.0042 18.6653 12.3836 17.6942 12.3836C16.8445 12.3836 16.0555 12.0953 15.4182 11.6249C14.7809 12.0953 14.0071 12.3836 13.1422 12.3836C12.1711 12.3836 11.2911 12.0042 10.6234 11.4125C10.1075 12.8539 8.71157 13.9009 7.07284 13.9009C6.06679 13.9009 5.10193 13.5012 4.39054 12.7898C3.67915 12.0785 3.27949 11.1136 3.27949 10.1075C3.27949 8.22604 4.66027 6.66318 6.46591 6.37488C6.37487 6.11694 6.31417 5.84381 6.31417 5.55552C6.31417 4.95188 6.55397 4.37297 6.9808 3.94614C7.40764 3.5193 7.98655 3.27951 8.59019 3.27951C8.89365 3.27951 9.18195 3.3402 9.4399 3.44642C9.69784 2.47532 10.5779 1.76217 11.6249 1.76217C12.0042 1.76217 12.3835 1.86838 12.6567 2.02012C13.1422 1.0035 14.1892 0.244827 15.4182 0.244827C16.6473 0.244827 17.6942 1.0035 18.1798 2.02012C18.4529 1.86838 18.8322 1.76217 19.2116 1.76217C20.2585 1.76217 21.1386 2.47532 21.3965 3.44642C21.6545 3.3402 21.9428 3.27951 22.2463 3.27951C22.8499 3.27951 23.4288 3.5193 23.8556 3.94614C24.2825 4.37297 24.5223 4.95188 24.5223 5.55552C24.5223 5.84381 24.4616 6.11694 24.3705 6.37488C26.1762 6.66318 27.5569 8.22604 27.5569 10.1075ZM12.3835 15.4182C11.9811 15.4182 11.5952 15.5781 11.3106 15.8627C11.0261 16.1472 10.8662 16.5332 10.8662 16.9356C10.8662 17.338 11.0261 17.7239 11.3106 18.0085C11.5952 18.2931 11.9811 18.4529 12.3835 18.4529C12.786 18.4529 13.1719 18.2931 13.4565 18.0085C13.741 17.7239 13.9009 17.338 13.9009 16.9356C13.9009 16.5332 13.741 16.1472 13.4565 15.8627C13.1719 15.5781 12.786 15.4182 12.3835 15.4182ZM18.4529 15.4182C18.0505 15.4182 17.6645 15.5781 17.38 15.8627C17.0954 16.1472 16.9356 16.5332 16.9356 16.9356C16.9356 17.338 17.0954 17.7239 17.38 18.0085C17.6645 18.2931 18.0505 18.4529 18.4529 18.4529C18.8553 18.4529 19.2413 18.2931 19.5258 18.0085C19.8104 17.7239 19.9702 17.338 19.9702 16.9356C19.9702 16.5332 19.8104 16.1472 19.5258 15.8627C19.2413 15.5781 18.8553 15.4182 18.4529 15.4182ZM27.9059 13.385C26.9348 14.614 25.4478 15.4182 23.7636 15.4182C23.0808 15.4182 22.4283 15.2665 21.8062 15.0086C21.791 18.8778 21.2296 23.5512 19.1357 25.9638C18.3467 26.859 17.3908 27.3445 16.1769 27.4963V24.5223H14.6595V27.4963C13.4457 27.3445 12.4898 26.8742 11.7007 25.9638C9.59163 23.536 9.03021 18.8929 9.01504 15.0237C8.4081 15.2665 7.75565 15.4182 7.07284 15.4182C5.3886 15.4182 3.9016 14.614 2.93051 13.385C1.58007 14.7354 0.244812 15.4182 0.244812 15.4182C0.244812 15.4182 1.76215 18.4529 4.79683 18.4529C5.34308 18.4529 5.76793 18.3922 6.13209 18.3164C6.64799 24.1126 8.71157 30.5916 15.4182 30.5916C22.1249 30.5916 24.1884 24.1126 24.7043 18.3164C25.0685 18.3922 25.4934 18.4529 26.0396 18.4529C29.0743 18.4529 30.5916 15.4182 30.5916 15.4182C30.5916 15.4182 29.2564 14.7354 27.9059 13.385Z" fill="#FCC436"/>
</svg>
