<svg width="22" height="22" viewBox="0 0 22 22" fill="none" xmlns="http://www.w3.org/2000/svg">
<path d="M20.2922 7.7364V18.9394C20.2922 19.6862 20.028 20.3239 19.4995 20.8523C18.9711 21.3808 18.3334 21.645 17.5866 21.645H4.05844C3.31157 21.645 2.67392 21.3808 2.14548 20.8523C1.61703 20.3239 1.35281 19.6862 1.35281 18.9394V7.7364C0.94415 7.49684 0.616516 7.17272 0.36991 6.76406C0.123303 6.3554 0 5.90446 0 5.41125C0 4.42482 0.482644 3.51943 1.44793 2.69506C2.41322 1.87069 3.72728 1.21542 5.39011 0.72925C7.05294 0.243084 8.86374 0 10.8225 0C12.7813 0 14.5921 0.243084 16.2549 0.72925C17.9177 1.21542 19.2318 1.87069 20.1971 2.69506C21.1624 3.51943 21.645 4.42482 21.645 5.41125C21.645 5.90446 21.5217 6.3554 21.2751 6.76406C21.0285 7.17272 20.7008 7.49684 20.2922 7.7364Z" fill="#FCC436"/>
</svg>
